<svg xmlns="http://www.w3.org/2000/svg" viewBox="0 0 1041 624" font-family="Inter, 'Helvetica Neue', Arial, sans-serif" style="width:100%;height:auto;display:block;max-width:1041px;margin:0 auto">
<defs>
  <marker id="fa" viewBox="0 0 10 10" refX="7" refY="5" markerWidth="7" markerHeight="7" orient="auto">
    <path d="M0,0 L10,5 L0,10 z" fill="#0F766E"/></marker>
</defs>
<style>.fc{cursor:pointer;transition:transform .14s ease,opacity .14s ease}.fc:hover{transform:translateY(-3px)}.fc rect{transition:stroke-width .14s ease}.fc:hover rect{stroke-width:2.4}svg:has(.fc:hover) .fc:not(:hover){opacity:.45}a.fc{text-decoration:none}</style>
<rect x="0" y="0" width="1041" height="624" fill="#FAFAF7"/>
<text x="1017" y="616" text-anchor="end" font-size="13.5" letter-spacing="0.3" fill="#9AA0A6" opacity="0.7"><tspan fill="#0F766E" font-weight="600">AIXLab@Chalmers</tspan> · usableai.se</text>
<line x1="28" y1="272" x2="28" y2="606" stroke="#D5D8DD" stroke-width="1" stroke-dasharray="2 3"/>
<line x1="225" y1="272" x2="225" y2="606" stroke="#D5D8DD" stroke-width="1" stroke-dasharray="2 3"/>
<line x1="422" y1="272" x2="422" y2="606" stroke="#D5D8DD" stroke-width="1" stroke-dasharray="2 3"/>
<line x1="619" y1="272" x2="619" y2="606" stroke="#D5D8DD" stroke-width="1" stroke-dasharray="2 3"/>
<line x1="816" y1="272" x2="816" y2="606" stroke="#D5D8DD" stroke-width="1" stroke-dasharray="2 3"/>
<line x1="1013" y1="272" x2="1013" y2="606" stroke="#D5D8DD" stroke-width="1" stroke-dasharray="2 3"/>
<polyline points="914.5,185 914.5,132 126.5,132 126.5,182" fill="none" stroke="#0F766E" stroke-width="2" stroke-dasharray="7 5" marker-end="url(#fa)"/>
<text x="520.5" y="114" text-anchor="middle" font-size="21" font-weight="700" fill="#0F766E">System Re-Engineering &amp; Optimization</text>
<text x="520.5" y="162" text-anchor="middle" font-size="13" fill="#6B7280">continuous feedback that re-engineers and optimizes the deployed system</text>
<polygon points="28,185 203,185 225,225.0 203,265 28,265" fill="#0F766E"/>
<text x="126.5" y="221.0" text-anchor="middle" font-size="14.5" font-weight="700" fill="#fff">Requirements</text>
<text x="126.5" y="240.0" text-anchor="middle" font-size="14.5" font-weight="700" fill="#fff">&amp; Specification</text>
<polygon points="225,185 400,185 422,225.0 400,265 225,265 247,225.0" fill="#0F766E"/>
<text x="334.5" y="221.0" text-anchor="middle" font-size="14.5" font-weight="700" fill="#fff">Design</text>
<text x="334.5" y="240.0" text-anchor="middle" font-size="14.5" font-weight="700" fill="#fff">&amp; Architecture</text>
<polygon points="422,185 597,185 619,225.0 597,265 422,265 444,225.0" fill="#0F766E"/>
<text x="531.5" y="221.0" text-anchor="middle" font-size="14.5" font-weight="700" fill="#fff">Code</text>
<text x="531.5" y="240.0" text-anchor="middle" font-size="14.5" font-weight="700" fill="#fff">Generation</text>
<polygon points="619,185 794,185 816,225.0 794,265 619,265 641,225.0" fill="#0F766E"/>
<text x="728.5" y="221.0" text-anchor="middle" font-size="14.5" font-weight="700" fill="#fff">Verification</text>
<text x="728.5" y="240.0" text-anchor="middle" font-size="14.5" font-weight="700" fill="#fff">&amp; Test</text>
<polygon points="816,185 991,185 1013,225.0 991,265 816,265 838,225.0" fill="#0F766E"/>
<text x="925.5" y="221.0" text-anchor="middle" font-size="14.5" font-weight="700" fill="#fff">Release Decision</text>
<text x="925.5" y="240.0" text-anchor="middle" font-size="14.5" font-weight="700" fill="#fff">(Go / No-Go)</text>
<rect x="28" y="277" width="14" height="16" rx="2" fill="#9A3412"/>
<text x="50" y="290" font-size="15" font-weight="700" fill="#9A3412">PAPERS</text>
<a class="fc" href="https://doi.org/10.1145/3696630.3728494" target="_blank" rel="noopener"><title>Polymer: Development Workflows as Software (FSE 2025)</title><rect x="32" y="300" width="977" height="48" rx="7" fill="#FBE2D7" stroke="#D97757" stroke-width="1.3"/><text x="44" y="321" font-size="13" font-weight="700" fill="#9A3412">Polymer</text><text x="44" y="338" font-size="10.5" fill="#6B7280">Development Workflows as Software · FSE 2025</text></a>
<a class="fc" href="https://arxiv.org/abs/2603.21430" target="_blank" rel="noopener"><title>DomAgent: Knowledge Graphs and Case-Based Reasoning for Domain-Specific Code Generation (AAMAS 2026)</title><rect x="426" y="356" width="189" height="48" rx="7" fill="#FBE2D7" stroke="#D97757" stroke-width="1.3"/><text x="438" y="377" font-size="13" font-weight="700" fill="#9A3412">DomAgent</text><text x="438" y="394" font-size="10.5" fill="#6B7280">KG + CBR · AAMAS 2026</text></a>
<a class="fc" href="https://doi.org/10.1109/ICSE55347.2025.00211" target="_blank" rel="noopener"><title>Automating a Complete Software Test Process Using LLMs (ICSE 2025)</title><rect x="623" y="356" width="189" height="48" rx="7" fill="#FBE2D7" stroke="#D97757" stroke-width="1.3"/><text x="635" y="377" font-size="13" font-weight="700" fill="#9A3412">AutoTester</text><text x="635" y="394" font-size="10.5" fill="#6B7280">test process · ICSE 2025</text></a>
<a class="fc" href="https://www.sciencedirect.com/science/article/pii/S0164121226001949" target="_blank" rel="noopener"><title>GateLens: Reasoning-Enhanced LLM Agent for Automotive Software Release Analytics (JSS 2026)</title><rect x="820" y="356" width="189" height="48" rx="7" fill="#FBE2D7" stroke="#D97757" stroke-width="1.3"/><text x="832" y="377" font-size="13" font-weight="700" fill="#9A3412">GateLens</text><text x="832" y="394" font-size="10.5" fill="#6B7280">release analytics · JSS 2026</text></a>
<a class="fc" href="https://arxiv.org/abs/2603.21439" target="_blank" rel="noopener"><title>LLM-Powered Workflow Optimization for Multidisciplinary Software Development (FSE 2026)</title><rect x="426" y="412" width="386" height="48" rx="7" fill="#FBE2D7" stroke="#D97757" stroke-width="1.3"/><text x="438" y="433" font-size="13" font-weight="700" fill="#9A3412">SPAPI Coder</text><text x="438" y="450" font-size="10.5" fill="#6B7280">LLM-powered workflow optimization · FSE 2026</text></a>
<a class="fc" href="https://doi.org/10.1007/978-3-031-80889-0_3" target="_blank" rel="noopener"><title>GoNoGo: LLM-Based Multi-agent System for Automotive Software Release Decision-Making (IFIP ICTSS 2024)</title><rect x="820" y="412" width="189" height="48" rx="7" fill="#FBE2D7" stroke="#D97757" stroke-width="1.3"/><text x="832" y="433" font-size="13" font-weight="700" fill="#9A3412">GoNoGo</text><text x="832" y="450" font-size="10.5" fill="#6B7280">release decision · ICTSS 2024</text></a>
<rect x="28" y="471" width="14" height="16" rx="2" fill="#4B3FA0"/>
<text x="50" y="484" font-size="15" font-weight="700" fill="#4B3FA0">ONGOING PROJECTS</text>
<g class="fc"><title>Research Automation Agents — VINNOVA Multiagent Systems for research automation (ongoing)</title><rect x="32" y="494" width="780" height="48" rx="7" fill="#E9E6FB" stroke="#6D5BD0" stroke-width="1.3"/><text x="44" y="523.0" font-size="13" font-weight="700" fill="#4B3FA0">Research Automation Agents</text></g>
<g class="fc"><title>AI-Driven System-Level Software Generation and Re-Engineering for Automotive Systems — ongoing project</title><rect x="32" y="550" width="780" height="48" rx="7" fill="#E9E6FB" stroke="#6D5BD0" stroke-width="1.3"/><text x="44" y="579.0" font-size="13" font-weight="700" fill="#4B3FA0">AI-Driven System-Level Re-Engineering</text></g>
</svg>